<svg width="115" height="115" viewBox="0 0 115 115" fill="none" xmlns="http://www.w3.org/2000/svg">
<path d="M3 3H112" stroke="#E8B885" stroke-width="5" stroke-miterlimit="10" stroke-linecap="round" stroke-linejoin="round"/>
<path d="M98.375 73.85H16.625C11.9925 73.85 8.45 70.3075 8.45 65.675V3H106.55V65.675C106.55 70.3075 103.007 73.85 98.375 73.85Z" stroke="#E8B885" stroke-width="5" stroke-miterlimit="10" stroke-linecap="round" stroke-linejoin="round"/>
<path d="M57.5 112C60.51 112 62.95 109.56 62.95 106.55C62.95 103.54 60.51 101.1 57.5 101.1C54.4901 101.1 52.05 103.54 52.05 106.55C52.05 109.56 54.4901 112 57.5 112Z" stroke="#E8B885" stroke-width="5" stroke-miterlimit="10" stroke-linecap="round" stroke-linejoin="round"/>
<path d="M57.5 101.1V73.85" stroke="#E8B885" stroke-width="5" stroke-miterlimit="10" stroke-linecap="round" stroke-linejoin="round"/>
<path d="M64.04 61.86C64.04 62.405 63.495 62.95 62.95 62.95H52.05C51.505 62.95 50.96 62.405 50.96 61.86C50.96 60.225 51.505 58.8625 52.595 57.7725C52.595 57.5 52.8675 57.5 53.14 57.2275C54.23 56.1375 55.865 55.32 57.7725 55.32C59.68 55.32 61.315 56.1375 62.405 57.2275C62.6775 57.5 62.6775 57.5 62.95 57.7725C63.495 58.8625 64.04 60.225 64.04 61.86Z" stroke="#E8B885" stroke-width="5" stroke-miterlimit="10" stroke-linecap="round" stroke-linejoin="round"/>
<path d="M57.5 49.5975C59.9079 49.5975 61.86 47.6455 61.86 45.2375C61.86 42.8295 59.9079 40.8775 57.5 40.8775C55.092 40.8775 53.14 42.8295 53.14 45.2375C53.14 47.6455 55.092 49.5975 57.5 49.5975Z" stroke="#E8B885" stroke-width="5" stroke-miterlimit="10" stroke-linecap="round" stroke-linejoin="round"/>
<path d="M83.9325 37.6075C83.9325 38.1525 83.3875 38.6975 82.8425 38.6975H71.9425C71.3975 38.6975 70.8525 38.1525 70.8525 37.6075C70.8525 35.9725 71.3975 34.61 72.4875 33.52C72.4875 33.2475 72.76 33.2475 73.0325 32.975C74.1225 31.885 75.7575 31.0675 77.665 31.0675C79.5725 31.0675 81.2075 31.885 82.2975 32.975C82.57 33.2475 82.57 33.2475 82.8425 33.52C83.3875 34.61 83.9325 35.9725 83.9325 37.6075Z" stroke="#E8B885" stroke-width="5" stroke-miterlimit="10" stroke-linecap="round" stroke-linejoin="round"/>
<path d="M77.3925 25.345C79.8004 25.345 81.7525 23.393 81.7525 20.985C81.7525 18.577 79.8004 16.625 77.3925 16.625C74.9845 16.625 73.0325 18.577 73.0325 20.985C73.0325 23.393 74.9845 25.345 77.3925 25.345Z" stroke="#E8B885" stroke-width="5" stroke-miterlimit="10" stroke-linecap="round" stroke-linejoin="round"/>
<path d="M44.1475 37.6075C44.1475 38.1525 43.6025 38.6975 43.0575 38.6975H32.1575C31.6125 38.6975 31.0675 38.1525 31.0675 37.6075C31.0675 35.9725 31.6125 34.61 32.7025 33.52C32.7025 33.2475 32.975 33.2475 33.2475 32.975C34.3375 31.885 35.9725 31.0675 37.88 31.0675C39.7875 31.0675 41.4225 31.885 42.5125 32.975C42.785 33.2475 42.785 33.2475 43.0575 33.52C43.6025 34.61 44.1475 35.9725 44.1475 37.6075Z" stroke="#E8B885" stroke-width="5" stroke-miterlimit="10" stroke-linecap="round" stroke-linejoin="round"/>
<path d="M37.6075 25.345C40.0154 25.345 41.9675 23.393 41.9675 20.985C41.9675 18.577 40.0154 16.625 37.6075 16.625C35.1995 16.625 33.2475 18.577 33.2475 20.985C33.2475 23.393 35.1995 25.345 37.6075 25.345Z" stroke="#E8B885" stroke-width="5" stroke-miterlimit="10" stroke-linecap="round" stroke-linejoin="round"/>
<path d="M47.145 52.8675C44.42 50.96 42.5125 48.235 41.15 45.2375" stroke="#E8B885" stroke-width="5" stroke-miterlimit="10" stroke-linecap="round" stroke-linejoin="round"/>
<path d="M49.0525 23.165C51.505 21.8025 54.5025 20.985 57.5 20.985C60.4975 20.985 63.495 21.8025 65.9475 23.165" stroke="#E8B885" stroke-width="5" stroke-miterlimit="10" stroke-linecap="round" stroke-linejoin="round"/>
</svg>
