<svg width="145" height="145" viewBox="0 0 145 145" fill="none" xmlns="http://www.w3.org/2000/svg">
<path d="M97.4219 58.9062V117.812H33.9844V40.7812H79.2969V58.9062H97.4219Z" stroke="#E8B885" stroke-width="5" stroke-miterlimit="10" stroke-linecap="round" stroke-linejoin="round"/>
<path d="M97.4219 58.9062H79.2969V40.7812L97.4219 58.9062Z" stroke="#E8B885" stroke-width="5" stroke-miterlimit="10" stroke-linecap="round" stroke-linejoin="round"/>
<path d="M111.016 45.3125V104.219H97.4219V58.9062H79.2969V40.7812H47.5781V27.1875H92.8906L111.016 45.3125Z" stroke="#E8B885" stroke-width="5" stroke-miterlimit="10" stroke-linecap="round" stroke-linejoin="round"/>
<path d="M111.016 45.3125H92.8906V27.1875L111.016 45.3125Z" stroke="#E8B885" stroke-width="5" stroke-miterlimit="10" stroke-linecap="round" stroke-linejoin="round"/>
<path d="M97.4219 58.9062H79.2969V40.7812L97.4219 58.9062Z" stroke="#E8B885" stroke-width="5" stroke-miterlimit="10" stroke-linecap="round" stroke-linejoin="round"/>
<path d="M52.1094 67.9688C57.1145 67.9688 61.1719 63.9113 61.1719 58.9062C61.1719 53.9012 57.1145 49.8438 52.1094 49.8438C47.1043 49.8438 43.0469 53.9012 43.0469 58.9062C43.0469 63.9113 47.1043 67.9688 52.1094 67.9688Z" stroke="#E8B885" stroke-width="5" stroke-miterlimit="10" stroke-linecap="round" stroke-linejoin="round"/>
<path d="M86.0938 101.953H45.3125" stroke="#E8B885" stroke-width="5" stroke-miterlimit="10" stroke-linecap="round" stroke-linejoin="round"/>
<path d="M86.0938 90.625H45.3125" stroke="#E8B885" stroke-width="5" stroke-miterlimit="10" stroke-linecap="round" stroke-linejoin="round"/>
<path d="M65.7031 79.2969H45.3125" stroke="#E8B885" stroke-width="5" stroke-miterlimit="10" stroke-linecap="round" stroke-linejoin="round"/>
</svg>
