<svg width="116" height="116" viewBox="0 0 116 116" fill="none" xmlns="http://www.w3.org/2000/svg">
<path d="M99.5183 30.305H16.4817C11.3832 30.305 7.25 34.4382 7.25 39.5367V94.8783C7.25 99.9768 11.3832 104.11 16.4817 104.11H99.5183C104.617 104.11 108.75 99.9768 108.75 94.8783V39.5367C108.75 34.4382 104.617 30.305 99.5183 30.305Z" stroke="#E8B885" stroke-width="5" stroke-miterlimit="10" stroke-linecap="square"/>
<path d="M67.2317 62.8333H90.2867C92.7295 62.84 95.1492 62.3605 97.4049 61.4228C99.6607 60.4852 101.707 59.1081 103.426 57.3718C105.144 55.6355 106.5 53.5746 107.414 51.3092C108.328 49.0439 108.782 46.6193 108.75 44.1767V39.3433C108.75 36.8949 107.777 34.5468 106.046 32.8156C104.315 31.0843 101.967 30.1117 99.5183 30.1117H16.4817C15.2529 30.1114 14.0365 30.3564 12.9036 30.8324C11.7708 31.3084 10.7444 32.0057 9.88459 32.8835C9.02477 33.7614 8.34885 34.802 7.89645 35.9445C7.44405 37.0869 7.22428 38.3082 7.25001 39.5367V44.37C7.24363 46.7964 7.71685 49.2002 8.64246 51.4431C9.56807 53.6861 10.9278 55.724 12.6436 57.4398C14.3593 59.1555 16.3972 60.5153 18.6402 61.4409C20.8831 62.3665 23.2869 62.8397 25.7133 62.8333H67.2317Z" stroke="#E8B885" stroke-width="5" stroke-miterlimit="10"/>
<path d="M58 58V67.2317" stroke="#E8B885" stroke-width="5" stroke-miterlimit="10" stroke-linecap="square"/>
<path d="M76.4633 30.305H39.5367L44.1767 11.89H71.8233L76.4633 30.305Z" stroke="#E8B885" stroke-width="5" stroke-miterlimit="10" stroke-linecap="square"/>
</svg>
