<svg width="242" height="335" viewBox="0 0 242 335" fill="none" xmlns="http://www.w3.org/2000/svg">
    <path fill-rule="evenodd" clip-rule="evenodd" d="M174.5 125C198.524 125 218 105.524 218 81.5C218 57.4756 198.524 38 174.5 38C150.476 38 131 57.4756 131 81.5C131 105.524 150.476 125 174.5 125ZM173.87 116.174C193.368 116.174 209.174 100.368 209.174 80.8695C209.174 61.3715 193.368 45.5652 173.87 45.5652C154.372 45.5652 138.565 61.3715 138.565 80.8695C138.565 100.368 154.372 116.174 173.87 116.174Z" fill="#ACC4D1"/>
    <path d="M116.727 65.1653C118.606 66.7924 121.394 66.7924 123.273 65.1653L168.752 25.7796C172.251 22.749 170.108 17 165.479 17H74.5214C69.892 17 67.7486 22.749 71.2481 25.7796L116.727 65.1653Z" fill="#ACC4D1"/>
    <path d="M122.227 90.7919C121.191 91.5168 119.811 91.5141 118.778 90.7852L12.6977 15.9569C9.99972 14.0538 11.9069 9.82444 15.1193 10.5865L65.6585 22.5746C65.8854 22.6284 66.1178 22.6556 66.3509 22.6556L120.5 22.6556L177.992 22.6556C178.234 22.6556 178.474 22.6265 178.709 22.5688L226.401 10.8372C229.627 10.0437 231.559 14.3042 228.837 16.2085L122.227 90.7919Z" fill="#456B80"/>
    <circle cx="200" cy="48" r="5" fill="#456B80"/>
    <circle cx="174" cy="80" r="30" fill="#456B80"/>
    <path d="M123.835 138.817C122.903 141.508 119.097 141.508 118.165 138.817L109.389 113.482C108.714 111.533 110.161 109.5 112.224 109.5L129.776 109.5C131.839 109.5 133.286 111.533 132.611 113.482L123.835 138.817Z" fill="#456B80"/>
    <ellipse cx="169.383" cy="193.826" rx="42.264" ry="70.1879" transform="rotate(28.1564 169.383 193.826)" fill="#456B80"/>
    <path d="M176.111 204.5C176.111 235.464 152.601 260.565 123.6 260.565C94.5987 260.565 58 213.5 74.5 183C92.8215 149.133 160.265 124.153 187 141C223.5 164 176.111 173.536 176.111 204.5Z" fill="#ACC4D1"/>
    <path d="M100 273.305L105.707 273.909C117.661 275.175 129.744 274.275 141.378 271.253L156.076 267.435C160 266.416 164.152 267.867 166.587 271.109L173.47 280.276C183.114 293.12 180.396 311.37 167.428 320.846V320.846L159.993 324.975C148.453 331.386 135.47 334.75 122.269 334.75V334.75C120.198 334.75 118.147 334.336 116.238 333.532L112.236 331.846C104.821 328.722 100 321.46 100 313.414V273.305Z" fill="#456B80"/>
    <path d="M118.165 138.817C119.097 141.508 122.903 141.508 123.835 138.817L132.611 113.482C133.286 111.533 131.839 109.5 129.776 109.5L112.224 109.5C110.161 109.5 108.714 111.533 109.389 113.482L118.165 138.817Z" fill="#456B80"/>
    <ellipse cx="42.264" cy="70.1879" rx="42.264" ry="70.1879" transform="matrix(-0.881663 0.47188 0.47188 0.881663 76.7595 112)" fill="#456B80"/>
    <path d="M65.889 204.5C65.889 235.464 89.3991 260.565 118.4 260.565C147.401 260.565 184 213.5 167.5 183C149.178 149.133 81.735 124.153 55 141C18.5 164 65.889 173.536 65.889 204.5Z" fill="#ACC4D1"/>
    <path d="M142 273.305L136.293 273.909C124.339 275.175 112.256 274.275 100.622 271.253L85.9241 267.435C81.9996 266.416 77.848 267.867 75.4134 271.109L68.5298 280.276C58.8856 293.12 61.6037 311.37 74.5723 320.846V320.846L82.0066 324.975C93.5465 331.386 106.53 334.75 119.731 334.75V334.75C121.802 334.75 123.853 334.336 125.762 333.532L129.764 331.846C137.179 328.722 142 321.46 142 313.414V273.305Z" fill="#456B80"/>
    <path fill-rule="evenodd" clip-rule="evenodd" d="M67.5 125C43.4756 125 24 105.524 24 81.5C24 57.4756 43.4756 38 67.5 38C91.5244 38 111 57.4756 111 81.5C111 105.524 91.5244 125 67.5 125ZM68.1304 116.174C48.6324 116.174 32.8261 100.368 32.8261 80.8696C32.8261 61.3715 48.6324 45.5652 68.1304 45.5652C87.6285 45.5652 103.435 61.3715 103.435 80.8696C103.435 100.368 87.6285 116.174 68.1304 116.174Z" fill="#ACC4D1"/>
    <circle cx="2.5" cy="2.5" r="2.5" transform="matrix(-1 0 0 1 200 42)" fill="#D9D9D9"/>
    <circle cx="30" cy="30" r="30" transform="matrix(-1 0 0 1 98 50)" fill="#456B80"/>
    <path d="M119.773 90.7919C120.809 91.5168 122.189 91.5141 123.222 90.7852L229.302 15.9569C232 14.0538 230.093 9.82444 226.881 10.5865L176.341 22.5746C176.115 22.6284 175.882 22.6556 175.649 22.6556L121.5 22.6556L64.0077 22.6556C63.7662 22.6556 63.5256 22.6265 63.2911 22.5688L15.5991 10.8372C12.3731 10.0437 10.4406 14.3042 13.1628 16.2085L119.773 90.7919Z" fill="#456B80"/>
    <circle cx="5" cy="5" r="5" transform="matrix(-1 0 0 1 47 43)" fill="#456B80"/>
    <circle cx="44.5" cy="44.5" r="2.5" fill="#D9D9D9"/>
    <path d="M125.273 65.1653C123.394 66.7924 120.606 66.7924 118.727 65.1653L73.2481 25.7796C69.7486 22.749 71.892 17 76.5214 17H167.479C172.108 17 174.251 22.749 170.752 25.7796L125.273 65.1653Z" fill="#ACC4D1"/>
</svg>